<?xml version="1.0" encoding="utf-8"?>
<!-- Generator: Adobe Illustrator 18.1.1, SVG Export Plug-In . SVG Version: 6.00 Build 0)  -->
<svg version="1.1" id="Layer_1" xmlns="http://www.w3.org/2000/svg" xmlns:xlink="http://www.w3.org/1999/xlink" x="0px" y="0px"
	 viewBox="0 0 204.6 129.4" enable-background="new 0 0 204.6 129.4" xml:space="preserve">
<g>
	<g id="_x37_935ec95c421cee6d86eb22ecd116478_1_">
		<path fill="#3084FF" d="M85.5,59.5c0,0,18.9-1.4,18.9-23.6S89,3,69.4,3h-36h-1.1H5v123.8h27.3h1.1h36c0,0,39.3,1.3,39.3-36.5
			C108.7,90.2,110.4,59.5,85.5,59.5z M64.7,24.9h4.6c0,0,8.8,0,8.8,12.9s-5.2,14.7-11,14.7H33.4V24.9H64.7L64.7,24.9z M67.6,104.8
			H33.3V71.7h36c0,0,13-0.2,13,17C82.4,103.2,72.7,104.6,67.6,104.8z M161.1,34.4c-47.6,0-47.6,47.6-47.6,47.6s-3.3,47.3,47.6,47.3
			c0,0,42.3,2.4,42.3-32.9h-21.8c0,0,0.7,13.3-19.8,13.3c0,0-21.8,1.4-21.8-21.5h64.1C204.2,88.2,211.3,34.4,161.1,34.4z
			 M139.9,71.7c0,0,2.7-19.1,21.8-19.1c19.1,0,18.9,19.1,18.9,19.1H139.9z M185.6,25.5h-51.1V10.3h51.1
			C185.6,10.3,185.6,25.5,185.6,25.5z"/>
	</g>
	<g id="_x37_935ec95c421cee6d86eb22ecd116478">
		<path fill="#FFFFFF" d="M80.5,56.5c0,0,18.9-1.4,18.9-23.6S84,0,64.4,0h-36h-1.1H0v123.8h27.3h1.1h36c0,0,39.3,1.3,39.3-36.5
			C103.8,87.3,105.5,56.5,80.5,56.5z M59.8,22h4.6c0,0,8.8,0,8.8,12.9s-5.2,14.7-11,14.7H28.4V22H59.8L59.8,22z M62.6,101.8H28.4
			V68.7h36c0,0,13-0.2,13,17C77.5,100.2,67.7,101.7,62.6,101.8z M156.2,31.5c-47.6,0-47.6,47.6-47.6,47.6s-3.3,47.3,47.6,47.3
			c0,0,42.3,2.4,42.3-32.9h-21.8c0,0,0.7,13.3-19.8,13.3c0,0-21.8,1.4-21.8-21.5h64.1C199.3,85.2,206.3,31.5,156.2,31.5z
			 M134.9,68.7c0,0,2.7-19.1,21.8-19.1c19.1,0,18.9,19.1,18.9,19.1H134.9z M180.6,22.5h-51.1V7.3h51.1
			C180.6,7.3,180.6,22.5,180.6,22.5z"/>
	</g>
</g>
</svg>
