<?xml version="1.0" encoding="utf-8"?>
<!-- Generator: Adobe Illustrator 18.1.1, SVG Export Plug-In . SVG Version: 6.00 Build 0)  -->
<svg version="1.1" id="Layer_1" xmlns="http://www.w3.org/2000/svg" xmlns:xlink="http://www.w3.org/1999/xlink" x="0px" y="0px"
	 viewBox="49.8 0 100.3 200" enable-background="new 49.8 0 100.3 200" xml:space="preserve">
<g>
	<g id="_x37_935ec95c421cee6d86eb22ecd11b7e3_1_">
		<path fill="#3084FF" d="M113.4,50.3c0,2,0,8.6,0,17.9h32l-3.5,28.6h-28.6c0,44.1,0,103.1,0,103.1H75.4c0,0,0-58.3,0-103.1H55.7
			V68.2h19.7c0-11.3,0-19.4,0-21.6c0-10.7-0.8-15.7,3.7-24s17.4-19.2,39.5-19S150.1,6,150.1,6l-4.8,30.5c0,0-14.2-3.7-21.1-2.4
			C117.4,35.3,113.4,39.6,113.4,50.3z"/>
	</g>
	<g id="_x37_935ec95c421cee6d86eb22ecd11b7e3">
		<path fill="#FFFFFF" d="M107.5,46.9c0,2,0,8.6,0,17.9h32L136,93.4h-28.6c0,44.1,0,103.1,0,103.1H69.5c0,0,0-58.3,0-103.1H49.8
			V64.8h19.7c0-11.3,0-19.4,0-21.6c0-10.7-0.8-15.7,3.7-24S90.6,0,112.7,0.2s31.5,2.4,31.5,2.4l-4.8,30.5c0,0-14.2-3.7-21.1-2.4
			C111.5,31.9,107.5,36.2,107.5,46.9z"/>
	</g>
</g>
</svg>
