<?xml version="1.0" encoding="utf-8"?>
<!-- Generator: Adobe Illustrator 18.1.1, SVG Export Plug-In . SVG Version: 6.00 Build 0)  -->
<svg version="1.1" id="Layer_1" xmlns="http://www.w3.org/2000/svg" xmlns:xlink="http://www.w3.org/1999/xlink" x="0px" y="0px"
	 viewBox="0 25.7 200 148.6" enable-background="new 0 25.7 200 148.6" xml:space="preserve">
<g id="_x37_935ec95c421cee6d86eb22ecd11f972_1_">
	<path fill="#3084FF" d="M194.8,29.3v-3.2H5.1v148.2H200V29.3H194.8z M163.4,30.3l-7.1,6.7l-3.3,3.3l-3.1,3.2l-3.2,3l-3,3l-2.9,2.8
		l-2.6,2.8l-2.8,2.5l-7.3,7.3l-4.5,4.3l-2.1,2l-1.9,2l-2,1.7l-1.8,1.7l-3.1,3L111,81l-1.3,1.3l-1.3,1.1l-1.1,1.2l-1.4,4.2L47.2,30.1
		L163.4,30.3z M35.4,60l46.2,39.4l-46.3,37.8L35.4,60z M172.1,170.3H35.3v-24.2h0.2l0.7-0.3l51.4-41.3l15.5,13.2l13.8-12.1l55.3,39
		V170.3z M172.1,136l-49.7-35.4l49.7-43.1V136z"/>
</g>
<g id="_x37_935ec95c421cee6d86eb22ecd11f972">
	<path fill="#FFFFFF" d="M195.1,171.3V25.7H0.2v145.5L195.1,171.3L195.1,171.3L195.1,171.3z M167.2,141.4v28.3H30.4V143h0.2l0.7-0.2
		l51.4-41.3l15.5,13.1l13.8-12.1L167.2,141.4L167.2,141.4L167.2,141.4z M167.2,136.4l-52.3-36.6l52.3-45.3V136.4L167.2,136.4
		L167.2,136.4z M158.5,27.2l-7.1,6.7l-3.3,3.3l-3.1,3.2l-3.2,3l-3,3l-2.9,2.8l-2.6,2.8l-2.8,2.5l-2.5,2.5l-4.8,4.8l-4.5,4.3l-2.1,2
		l-1.9,2l-2,1.7l-1.8,1.7l-3.1,3l-1.6,1.3l-1.3,1.3l-1.3,1.1l-1.1,1.1l-2,1.7l-0.8,0.6l-0.6,0.7l-0.7,0.4L98,85.2l-0.6,0.5
		L38.6,27.1L158.5,27.2L158.5,27.2L158.5,27.2z M79.6,98.7l-49.3,39.4l0.2-81.2L79.6,98.7L79.6,98.7L79.6,98.7z"/>
</g>
</svg>
