<?xml version="1.0" encoding="utf-8"?>
<!-- Generator: Adobe Illustrator 18.1.1, SVG Export Plug-In . SVG Version: 6.00 Build 0)  -->
<svg version="1.1" id="Layer_1" xmlns="http://www.w3.org/2000/svg" xmlns:xlink="http://www.w3.org/1999/xlink" x="0px" y="0px"
	 viewBox="0 31.8 200 136.4" enable-background="new 0 31.8 200 136.4" xml:space="preserve">
<g id="Layer_2">
	<polygon fill="#FFFFFF" points="161,53.7 16,53.7 0,40 0,154.9 15.6,168.2 187.8,168.2 	"/>
	<polygon fill="#3084FF" points="171.5,44.9 17,44.9 0,31.8 0,141 16.5,153.8 200,153.8 	"/>
</g>
<g id="Layer_3">
	<g>
		<rect x="19.2" y="62.8" fill="none" width="160.6" height="178.3"/>
		<path fill="#7F3F98" d="M41.5,84c0,0.7,0.3,1,1,1l-0.2,2.2h-1.8c-2.2,0-3.5-1-3.5-3.1c0-0.2,0-0.2,0-0.3l1.3-16c0-0.2,0-0.3,0-0.5
			c0-1.3-0.5-2-1.7-2h-2l-2,22h-4.5l1.7-19.4c0-0.2,0-0.3,0-0.5c0-1.3-0.7-2-1.8-2h-1.7l-2,22H20l2-22.3h-1.3l0.2-2.2h15.9
			c3.5,0,6,1.8,6,4.8v0.5L41.5,84z"/>
		<path fill="#7F3F98" d="M48.8,87.1h-4.5l2.2-24.3H51L48.8,87.1z"/>
		<path fill="#7F3F98" d="M57.2,89.7c-0.3,2.6-2.6,4.8-5.6,4.8h-5l0.2-2.2h3.6c1.5,0,2.3-0.8,2.5-2.5l2.3-27h4.3L57.2,89.7z"/>
		<path fill="#7F3F98" d="M74.3,84c0,0.7,0.3,1,1,1l-0.2,2.2h-1.8c-2.2,0-3.5-1.2-3.5-3c0-0.2,0-0.3,0-0.5L71.1,68
			c0-0.2,0-0.3,0-0.5c0-1.5-0.7-2.3-1.7-2.3h-2l-2,22h-4.3l2-22.2h-1.3l0.2-2.2h7.6c3.5,0,6,1.8,6,4.6c0,0.2,0,0.3,0,0.5L74.3,84z"
			/>
		<path fill="#7F3F98" d="M33.4,135.2c0,0.7,0.3,1,1.2,1l-0.2,2.2h-1.8c-2.2,0-3.5-1-3.5-3.1c0-0.2,0-0.3,0-0.3l0.7-7.6h-4.1
			l-1,11.1h-4.5l1.8-22.2h-1.3l0.2-2.2h5.6l-1,11.1h4.3l1-11.1h4.5L33.4,135.2z"/>
		<path fill="#7F3F98" d="M50.3,133.3c-0.3,3-3,5.1-6.5,5.1h-1.5c-3.1,0-5.5-2-5.5-4.6c0-0.2,0-0.3,0-0.5l1.2-14.1
			c0.3-3,3-5.1,6.5-5.1H46c3.3,0,5.6,2,5.6,4.6c0,0.2,0,0.3,0,0.5L50.3,133.3z M47.1,118.4c0-1.2-0.8-2.2-2-2.2s-2.3,1-2.5,2.3
			l-1.3,15.4c0,0.2,0,0.2,0,0.2c0,1.2,0.8,2,2.2,2c1.3,0,2.3-1,2.5-2.3l1.3-15.4l0,0H47.1z"/>
		<path fill="#7F3F98" d="M74.8,135.2c0,0.7,0.3,1,1,1l-0.2,2.2h-1.8c-2.2,0-3.5-1-3.5-3.1c0-0.2,0-0.2,0-0.3l1.3-16
			c0-0.2,0-0.3,0-0.5c0-1.3-0.5-2-1.7-2h-2l-1.8,22h-4.5l1.7-19.4c0-0.2,0-0.3,0-0.5c0-1.3-0.7-2-1.8-2h-2l-2,22H53l2.2-22.3h-1.3
			l0.2-2.2H70c3.5,0,6,1.8,6,4.8v0.5L74.8,135.2z"/>
		<path fill="#7F3F98" d="M90.5,116.2H86c-1.3,0-2.3,1-2.5,2.3l-0.5,6.6h5.5l-0.2,2.2h-5.6l-0.7,6.6c0,0.2,0,0.2,0,0.2
			c0,1.2,0.8,2,2.2,2h4.5l-0.2,2.2h-6c-2.6,0-4.6-2-4.6-4.6c0-0.2,0-0.3,0-0.5l1.2-14.1c0.3-2.8,2.8-5.1,5.6-5.1h6L90.5,116.2z"/>
		<path fill="#7F3F98" d="M105.9,123.2c-0.3,2.8-2.8,5.1-5.6,5.1h-3l-0.8,10.3H92l2-22.3h-1.3l0.2-2.2h8.6c2.6,0,4.6,2.2,4.6,4.6
			v0.5L105.9,123.2z M101.9,118.4c0-1.2-0.8-2-2.2-2h-1.3l-0.8,9.8h1.3c1.2,0,2.3-1,2.5-2.3l0.5-5.3V118.4z"/>
		<path fill="#7F3F98" d="M120.6,135.2c0,0.7,0.3,1,1,1l-0.2,2.2h-1.8c-2.2,0-3.5-1.2-3.5-3c0-0.2,0-0.3,0-0.5l0.5-5.6h-4.1
			l-0.8,9.1h-4.5l1.7-19.2c0.3-3.1,3.1-5.1,6.8-5.1c3.3,0,6,1.8,6,4.6c0,0.2,0,0.3,0,0.5L120.6,135.2z M117.6,118.2
			c0-1.2-0.7-2-1.8-2c-1.2,0-2.2,1-2.2,2.3l-0.8,8.6h4l0.8-8.6V118.2z"/>
		<path fill="#7F3F98" d="M138.8,116.2h-7.9c-0.8,0-1.5,0.8-1.5,2l-1.3,15.6c0,0.2,0,0.3,0,0.5c0,1.3,0.8,2.2,2,2.2
			c1.5,0,2.6-1,2.8-2.5l0.8-8.6h4.5l-1.5,15.7c-0.3,2.5-3.1,4.8-6.3,4.8h-4.5l0.2-2.2h3.6c1.3,0,2.3-1.2,2.5-2.5l0.3-3.3
			c-0.8,0.5-1.7,0.7-2.6,0.7c-3.6,0-6.5-1.3-6.5-4.3c0-0.2,0-0.3,0-0.3l1.3-14.9c0.3-2.8,2.5-4.8,5.6-4.8h8.6L138.8,116.2z"/>
		<path fill="#7F3F98" d="M144.6,138.4h-4.5l2.2-24.3h4.5L144.6,138.4z"/>
		<path fill="#7F3F98" d="M161.1,135.2c0,0.7,0.3,1,1,1l-0.2,2.2h-1.8c-2.2,0-3.5-1.2-3.5-3c0-0.2,0-0.3,0-0.5l1.3-15.7
			c0-0.2,0-0.3,0-0.5c0-1.5-0.7-2.3-1.7-2.3h-2l-2,22h-4.5l2.2-22.2h-1.3l0.2-2.2h7.6c3.5,0,6,1.8,6,4.6c0,0.2,0,0.3,0,0.5
			L161.1,135.2z"/>
		<path fill="#7F3F98" d="M177.5,135.2c0,0.7,0.3,1,1,1l-0.2,2.2h-1.8c-2.2,0-3.5-1.2-3.5-3c0-0.2,0-0.3,0-0.5l0.5-5.6h-4l-0.8,9.1
			h-4.5l1.7-19.2c0.3-3.1,3.1-5.1,6.8-5.1c3.3,0,6,1.8,6,4.6c0,0.2,0,0.3,0,0.5L177.5,135.2z M174.5,118.2c0-1.2-0.7-2-1.8-2
			s-2.2,1-2.2,2.3l-0.8,8.6h4l0.8-8.6V118.2z"/>
	</g>
	<g>
		<rect x="17.5" y="62" fill="none" width="160.6" height="178.3"/>
		<path fill="#FFFFFF" d="M39.7,83c0,0.7,0.3,1,1,1l-0.2,2.2h-1.8c-2.2,0-3.5-1-3.5-3.1c0-0.2,0-0.2,0-0.3l1.3-16c0-0.2,0-0.3,0-0.5
			c0-1.3-0.5-2-1.7-2H33l-2,22h-4.5l1.7-19.4c0-0.2,0-0.3,0-0.5c0-1.3-0.7-2-1.8-2h-2l-2,22H18l2-22.2h-1.3l0.2-2.2h15.9
			c3.5,0,6,1.8,6,4.8v0.5L39.7,83z"/>
		<path fill="#FFFFFF" d="M47,86.3h-4.5L44.7,62h4.5L47,86.3z"/>
		<path fill="#FFFFFF" d="M55.6,88.8c-0.3,2.6-2.6,4.8-5.6,4.8h-5l0.2-2.2h3.6c1.5,0,2.3-0.8,2.5-2.5l2.3-27h4.3L55.6,88.8z"/>
		<path fill="#FFFFFF" d="M72.6,83c0,0.7,0.3,1,1,1l-0.2,2.2h-1.8c-2.2,0-3.5-1.2-3.5-3c0-0.2,0-0.3,0-0.5L69.4,67
			c0-0.2,0-0.3,0-0.5c0-1.5-0.7-2.3-1.7-2.3h-2l-2,22h-4.3l2-22.2h-1.3l0.2-2.2H68c3.5,0,6,1.8,6,4.6c0,0.2,0,0.3,0,0.5L72.6,83z"/>
		<path fill="#FFFFFF" d="M31.6,134.4c0,0.7,0.3,1,1.2,1l-0.2,2.2h-1.8c-2.2,0-3.5-1-3.5-3.1c0-0.2,0-0.3,0-0.3l0.7-7.6h-4.1
			l-1,11.1h-4.5l2-22.2H19l0.2-2.2h5.6l-1,11.1h4.3l1-11.1h4.5L31.6,134.4z"/>
		<path fill="#FFFFFF" d="M48.6,132.4c-0.3,3-3,5.1-6.5,5.1h-1.5c-3.1,0-5.5-2-5.5-4.6c0-0.2,0-0.3,0-0.5l1.2-14.1
			c0.3-3,3-5.1,6.5-5.1h1.5c3.3,0,5.6,2,5.6,4.6c0,0.2,0,0.3,0,0.5L48.6,132.4z M45.5,117.5c0-1.2-0.8-2.2-2-2.2s-2.3,1-2.5,2.3
			L39.7,133c0,0.2,0,0.2,0,0.2c0,1.2,0.8,2,2.2,2s2.3-1,2.5-2.3l1.3-15.4l0,0C45.7,117.5,45.5,117.5,45.5,117.5z"/>
		<path fill="#FFFFFF" d="M73,134.4c0,0.7,0.3,1,1,1l-0.2,2.2H72c-2.2,0-3.5-1-3.5-3.1c0-0.2,0-0.2,0-0.3l1.3-16c0-0.2,0-0.3,0-0.5
			c0-1.3-0.5-2-1.7-2h-2l-2,22h-4.5l1.7-19.4c0-0.2,0-0.3,0-0.5c0-1.3-0.7-2-1.8-2h-2l-2,22H51l2-22.2h-1.3l0.2-2.2h15.9
			c3.5,0,6,1.8,6,4.8v0.5L73,134.4z"/>
		<path fill="#FFFFFF" d="M88.8,115.4h-4.5c-1.3,0-2.3,1-2.5,2.3l-0.5,6.6h5.5l-0.2,2.2H81l-0.7,6.6c0,0.2,0,0.2,0,0.2
			c0,1.2,0.8,2,2.2,2H87l-0.2,2.2h-6c-2.6,0-4.6-2-4.6-4.6c0-0.2,0-0.3,0-0.5l1.2-14.1c0.3-2.8,2.8-5.1,5.6-5.1h6L88.8,115.4z"/>
		<path fill="#FFFFFF" d="M104.2,122.3c-0.3,2.8-2.8,5.1-5.6,5.1h-3l-0.8,10.3h-4.5l2-22.2H91l0.2-2.2h8.6c2.6,0,4.6,2.2,4.6,4.6
			v0.5L104.2,122.3z M100.1,117.4c0-1.2-0.8-2-2.2-2h-1.3l-0.8,9.8h1.3c1.2,0,2.3-1,2.5-2.3l0.5-5.3V117.4z"/>
		<path fill="#FFFFFF" d="M118.8,134.4c0,0.7,0.3,1,1,1l-0.2,2.2h-1.8c-2.2,0-3.5-1.2-3.5-3c0-0.2,0-0.3,0-0.5l0.5-5.6h-4l-0.8,9.1
			h-4.5l1.7-19.2c0.3-3.1,3.1-5.1,6.8-5.1c3.3,0,6,1.8,6,4.6c0,0.2,0,0.3,0,0.5L118.8,134.4z M115.8,117.4c0-1.2-0.7-2-1.8-2
			c-1.2,0-2.2,1-2.2,2.3l-0.8,8.6h4l0.8-8.6V117.4z"/>
		<path fill="#FFFFFF" d="M137,115.4h-8c-0.8,0-1.5,0.8-1.5,2l-1.3,15.6c0,0.2,0,0.3,0,0.5c0,1.3,0.8,2.2,2,2.2c1.5,0,2.6-1,2.8-2.5
			l0.8-8.6h4.5l-1.3,15.9c-0.3,2.5-3.1,4.8-6.3,4.8h-4.5l0.2-2.2h3.6c1.3,0,2.3-1.2,2.5-2.5l0.3-3.3c-0.8,0.5-1.7,0.7-2.6,0.7
			c-3.6,0-6.5-1.3-6.5-4.3c0-0.2,0-0.3,0-0.3l1.3-14.9c0.3-2.8,2.5-4.8,5.6-4.8h8.6L137,115.4z"/>
		<path fill="#FFFFFF" d="M142.8,137.6h-4.5l2.2-24.3h4.5L142.8,137.6z"/>
		<path fill="#FFFFFF" d="M159.5,134.4c0,0.7,0.3,1,1,1l-0.2,2.2h-1.8c-2.2,0-3.5-1.2-3.5-3c0-0.2,0-0.3,0-0.5l1.3-15.7
			c0-0.2,0-0.3,0-0.5c0-1.5-0.7-2.3-1.7-2.3h-2l-2,22h-4.5l2-22.2h-1.3l0.2-2.2h7.6c3.5,0,6,1.8,6,4.6c0,0.2,0,0.3,0,0.5
			L159.5,134.4z"/>
		<path fill="#FFFFFF" d="M175.7,134.4c0,0.7,0.3,1,1,1l-0.2,2.2h-1.8c-2.2,0-3.5-1.2-3.5-3c0-0.2,0-0.3,0-0.5l0.5-5.6h-4l-0.8,9.1
			h-4.5l1.7-19.2c0.3-3.1,3.1-5.1,6.8-5.1c3.3,0,6,1.8,6,4.6c0,0.2,0,0.3,0,0.5L175.7,134.4z M172.7,117.4c0-1.2-0.7-2-1.8-2
			s-2.2,1-2.2,2.3l-0.8,8.6h4l0.8-8.6V117.4z"/>
	</g>
</g>
</svg>
