<?xml version="1.0" encoding="utf-8"?>
<!-- Generator: Adobe Illustrator 18.1.1, SVG Export Plug-In . SVG Version: 6.00 Build 0)  -->
<svg version="1.1" id="Layer_1" xmlns="http://www.w3.org/2000/svg" xmlns:xlink="http://www.w3.org/1999/xlink" x="0px" y="0px"
	 viewBox="0 0 190.9 202.9" enable-background="new 0 0 190.9 202.9" xml:space="preserve">
<g id="_x37_935ec95c421cee6d86eb22ecd1368a9_1_">
	<path fill="#3084FF" d="M11.5,3.3h18L41,38.9h1.1l11-35.6h18.1L50.5,55.3v37H32.7V57L11.5,3.3z M73.1,41.6c0-5.2,2.1-9.4,6.4-12.5
		c4.3-3.1,10-4.6,17.3-4.6c6.6,0,12,1.6,16.2,4.9c4.2,3.3,6.3,7.5,6.3,12.6v34.8c0,5.8-2.1,10.3-6.2,13.6c-4.1,3.3-9.8,4.9-17.1,4.9
		c-7,0-12.5-1.7-16.8-5.1c-4.2-3.4-6.3-8-6.3-13.7L73.1,41.6L73.1,41.6z M89.5,77.8c0,1.9,0.5,3.3,1.7,4.3c1.1,1,2.8,1.5,4.9,1.5
		c2.1,0,3.9-0.5,5.2-1.5c1.3-1.1,1.9-2.5,1.9-4.3V41.1c0-1.5-0.7-2.7-2-3.6c-1.3-0.9-3-1.4-5.1-1.4c-2,0-3.5,0.5-4.7,1.4
		c-1.2,0.9-1.8,2.1-1.8,3.6L89.5,77.8L89.5,77.8z M177.7,25.6V93h-16v-7.5c-2.9,2.7-6,4.8-9.2,6.3c-3.2,1.4-6.3,2.1-9.3,2.1
		c-3.7,0-6.5-1-8.4-3c-1.9-2-2.8-5-2.8-9V25.6h16v51.7c0,1.6,0.4,2.8,1,3.5c0.7,0.7,1.8,1.1,3.2,1.1c1.2,0,2.7-0.5,4.5-1.4
		c1.8-0.9,3.4-2.1,4.9-3.6V25.6H177.7z M162.8,145c-0.8-0.9-2-1.3-3.8-1.3c-1.8,0-3.1,0.4-3.9,1.3c-0.8,0.9-1.2,2.3-1.2,4.4v4.2h10
		v-4.2C163.9,147.3,163.5,145.8,162.8,145z M115.6,176.6c0.9,0.4,1.8,0.5,2.7,0.5c1.4,0,2.4-0.3,3-1c0.7-0.7,1-1.8,1-3.3v-24.3
		c0-1.6-0.4-2.9-1.2-3.7c-0.8-0.9-2-1.3-3.5-1.3c-0.8,0-1.6,0.2-2.4,0.5s-1.6,0.8-2.3,1.5v29.5C113.8,175.7,114.7,176.3,115.6,176.6
		z M189.6,125.2c0-11.7-12-21.2-26.8-21.2c-21.1-0.7-42.7-1-64.8-1c-22,0-43.7,0.3-64.8,1c-14.8,0-26.8,9.5-26.8,21.2
		c-0.9,9.3-1.3,18.5-1.3,27.8c0,9.3,0.4,18.5,1.3,27.8c0,11.7,12,21.2,26.8,21.2c21.1,0.7,42.7,1,64.8,1c22,0,43.7-0.3,64.8-1
		c14.8,0,26.8-9.5,26.8-21.2c0.9-9.3,1.3-18.5,1.3-27.8C190.9,143.7,190.5,134.4,189.6,125.2z M45.4,184.1v0.7H32.7v-0.7v-55.4H19.6
		V128v-8.8v-0.7h38.9v0.7v8.8v0.7H45.4C45.4,128.7,45.4,184.1,45.4,184.1z M90.5,136.4v47.7v0.7H79.3v-0.7v-4.6
		c-2.1,2-4.2,3.5-6.5,4.5c-2.3,1-4.4,1.5-6.5,1.5c-2.6,0-4.6-0.7-5.9-2.1c-1.3-1.4-2-3.6-2-6.5v-0.7v-39.7v-0.7h11.2v0.7v36.4
		c0,1.1,0.2,2,0.7,2.5c0.5,0.5,1.3,0.8,2.3,0.8c0.8,0,1.9-0.4,3.1-1c1.3-0.7,2.4-1.6,3.5-2.6v-36.1v-0.7h11.2L90.5,136.4L90.5,136.4
		z M133.9,147.9V174v0.7c0,3.4-0.9,6.1-2.7,7.9c-1.8,1.8-4.3,2.7-7.7,2.7c-2.2,0-4.2-0.4-5.9-1.1s-3.3-1.8-4.8-3.3v3v0.7h-11.4V184
		v-64.8v-0.7h11.4v0.7v20.4c1.5-1.5,3.1-2.6,4.8-3.4c1.7-0.8,3.4-1.2,5.2-1.2c3.6,0,6.3,1,8.2,3.1c1.9,2.1,2.8,5.1,2.8,9V147.9
		L133.9,147.9z M175.5,149.4V161v0.7H154v8.4c0,2.5,0.4,4.3,1.1,5.3c0.7,1,2,1.5,3.8,1.5c1.9,0,3.2-0.4,3.9-1.3
		c0.7-0.8,1.1-2.7,1.1-5.5v-2.7v-0.7h11.6v0.7v2.9v0.7c0,5-1.4,8.7-4.2,11.2c-2.8,2.5-7,3.7-12.7,3.7c-5,0-9-1.3-11.9-4
		c-2.9-2.7-4.3-6.3-4.3-11v-0.7v-21v-0.7c0-4.2,1.6-7.6,4.8-10.3c3.2-2.7,7.3-4,12.3-4c5.2,0,9.1,1.2,11.9,3.7
		c2.8,2.5,4.1,6,4.1,10.5L175.5,149.4L175.5,149.4z"/>
</g>
<g id="_x37_935ec95c421cee6d86eb22ecd1368a9">
	<path fill="#FFFFFF" d="M6.3,0.2h18l11.6,35.6h1.1l11-35.6h18.1L45.3,52.3v37H27.5V53.9L6.3,0.2z M67.9,38.6
		c0-5.2,2.1-9.4,6.4-12.5s10-4.6,17.3-4.6c6.6,0,12,1.6,16.2,4.9c4.2,3.3,6.3,7.5,6.3,12.6v34.8c0,5.8-2.1,10.3-6.2,13.6
		c-4.1,3.3-9.8,4.9-17.1,4.9c-7,0-12.5-1.7-16.8-5.1c-4.2-3.4-6.3-8-6.3-13.7L67.9,38.6L67.9,38.6z M84.3,74.8
		c0,1.9,0.5,3.3,1.7,4.3c1.1,1,2.8,1.5,4.9,1.5c2.1,0,3.9-0.5,5.2-1.5c1.3-1.1,1.9-2.5,1.9-4.3V38c0-1.5-0.7-2.7-2-3.6
		c-1.3-0.9-3-1.4-5.1-1.4c-2,0-3.5,0.5-4.7,1.4c-1.2,0.9-1.8,2.1-1.8,3.6L84.3,74.8L84.3,74.8z M172.5,22.5V90h-16v-7.5
		c-2.9,2.7-6,4.8-9.2,6.3c-3.2,1.4-6.3,2.1-9.3,2.1c-3.7,0-6.5-1-8.4-3c-1.9-2-2.8-5-2.8-9V22.5h16v51.7c0,1.6,0.4,2.8,1,3.5
		c0.7,0.7,1.8,1.1,3.2,1.1c1.2,0,2.7-0.5,4.5-1.4c1.8-0.9,3.4-2.1,4.9-3.6V22.5H172.5z M157.5,141.9c-0.8-0.9-2-1.3-3.8-1.3
		c-1.8,0-3.1,0.4-3.9,1.3c-0.8,0.9-1.2,2.3-1.2,4.4v4.2h10v-4.2C158.7,144.2,158.3,142.8,157.5,141.9z M110.4,173.5
		c0.9,0.4,1.8,0.5,2.7,0.5c1.4,0,2.4-0.3,3-1c0.7-0.7,1-1.8,1-3.3v-24.3c0-1.6-0.4-2.9-1.2-3.7c-0.8-0.9-2-1.3-3.5-1.3
		c-0.8,0-1.6,0.2-2.4,0.5c-0.8,0.3-1.6,0.8-2.3,1.5v29.5C108.6,172.6,109.5,173.2,110.4,173.5z M184.4,122.1
		c0-11.7-12-21.2-26.8-21.2c-21.1-0.7-42.7-1-64.8-1c-22,0-43.7,0.3-64.8,1c-14.8,0-26.8,9.5-26.8,21.2C0.4,131.4,0,140.6,0,149.9
		c0,9.3,0.4,18.5,1.3,27.8c0,11.7,12,21.2,26.8,21.2c21.1,0.7,42.7,1,64.8,1c22,0,43.7-0.3,64.8-1c14.8,0,26.8-9.5,26.8-21.2
		c0.9-9.3,1.3-18.5,1.3-27.8C185.7,140.6,185.3,131.4,184.4,122.1z M40.2,181.1v0.7H27.5v-0.7v-55.4H14.4v-0.7v-8.8v-0.7h38.9v0.7
		v8.8v0.7H40.2C40.2,125.6,40.2,181.1,40.2,181.1z M85.3,133.3V181v0.7H74.1V181v-4.6c-2.1,2-4.2,3.5-6.5,4.5
		c-2.3,1-4.4,1.5-6.5,1.5c-2.6,0-4.6-0.7-5.9-2.1c-1.3-1.4-2-3.6-2-6.5V173v-39.7v-0.7h11.2v0.7v36.4c0,1.1,0.2,2,0.7,2.5
		c0.5,0.5,1.3,0.8,2.3,0.8c0.8,0,1.9-0.4,3.1-1c1.3-0.7,2.4-1.6,3.5-2.6v-36.1v-0.7h11.2L85.3,133.3L85.3,133.3z M128.7,144.8V171
		v0.7c0,3.4-0.9,6.1-2.7,7.9c-1.8,1.8-4.3,2.7-7.7,2.7c-2.2,0-4.2-0.4-5.9-1.1s-3.3-1.8-4.8-3.3v3v0.7H96.3V181v-64.8v-0.7h11.4v0.7
		v20.4c1.5-1.5,3.1-2.6,4.8-3.4c1.7-0.8,3.4-1.2,5.2-1.2c3.6,0,6.3,1,8.2,3.1c1.9,2.1,2.8,5.1,2.8,9V144.8L128.7,144.8z
		 M170.3,146.3V158v0.7h-21.6v8.4c0,2.5,0.4,4.3,1.1,5.3c0.7,1,2,1.5,3.8,1.5c1.9,0,3.2-0.4,3.9-1.3s1.1-2.7,1.1-5.5v-2.7v-0.7h11.6
		v0.7v2.9v0.7c0,5-1.4,8.7-4.2,11.2s-7,3.7-12.7,3.7c-5,0-9-1.3-11.9-4c-2.9-2.7-4.3-6.3-4.3-11v-0.7v-21v-0.7
		c0-4.2,1.6-7.6,4.8-10.3s7.3-4,12.3-4c5.2,0,9.1,1.2,11.9,3.7c2.8,2.5,4.1,6,4.1,10.5L170.3,146.3L170.3,146.3z"/>
</g>
</svg>
